<svg xmlns="http://www.w3.org/2000/svg" viewBox="0 0 103 103"><title>nabidky-ikona</title><path d="M52.5,104A51.5,51.5,0,1,1,104,52.5,51.55,51.55,0,0,1,52.5,104Zm0-100A48.5,48.5,0,1,0,101,52.5,48.56,48.56,0,0,0,52.5,4Z" transform="translate(-1 -1)" style="fill:#813eef"/><path d="M52.5,85.18a6.72,6.72,0,0,0,6.7-6.7H45.8A6.72,6.72,0,0,0,52.5,85.18ZM72.61,65.07V48.31c0-10.29-5.46-18.9-15.08-21.18V24.85a5,5,0,1,0-10.06,0v2.28C37.89,29.41,32.39,38,32.39,48.31V65.07l-6.7,6.7v3.35H79.31V71.77Zm-6.7,3.35H39.09V48.31c0-8.31,5.06-15.08,13.41-15.08S65.91,40,65.91,48.31Z" transform="translate(-1 -1)" style="fill:#813eef;stroke:#813eef;stroke-miterlimit:10;stroke-width:0.25px"/></svg>