<?xml version="1.0" encoding="utf-8"?>
<!-- Generator: Adobe Illustrator 16.0.0, SVG Export Plug-In . SVG Version: 6.00 Build 0)  -->
<!DOCTYPE svg PUBLIC "-//W3C//DTD SVG 1.1//EN" "http://www.w3.org/Graphics/SVG/1.1/DTD/svg11.dtd">
<svg version="1.1" id="Vrstva_1" xmlns="http://www.w3.org/2000/svg" xmlns:xlink="http://www.w3.org/1999/xlink" x="0px" y="0px"
	 width="105px" height="105px" viewBox="0 0 105 105" enable-background="new 0 0 105 105" xml:space="preserve">
<g>
	<g>
		<g>
			<circle fill-rule="evenodd" clip-rule="evenodd" fill="#FFFFFF" cx="52.5" cy="52.5" r="50"/>
			<path fill="#B482AD" d="M52.5,104C24.103,104,1,80.896,1,52.5S24.103,1,52.5,1S104,24.104,104,52.5S80.897,104,52.5,104z M52.5,4
				C25.757,4,4,25.757,4,52.5S25.757,101,52.5,101S101,79.243,101,52.5S79.243,4,52.5,4z"/>
		</g>
	</g>
	<path id="cart_1_" fill-rule="evenodd" clip-rule="evenodd" fill="#B482AD" d="M74.803,61.049v0.039l-39.124,1.127
		c-0.021,0.018-0.046,0.033-0.077,0.042c-1.807-0.123-1.936,2.411,0.283,2.336c0.098-0.021,0.198-0.03,0.302-0.03h39.108
		c0.815,0,1.477,0.542,1.477,1.357c0,0.814-0.661,2.261-1.477,2.261H36.187c-0.105,0-0.208-0.011-0.308-0.031
		c-6.2-0.071-5.585-8.26-2.385-8.26c0.065-0.065,0.177-0.052,0.313,0.021l-7.494-24.729h-2.671c-0.546,1.041-1.624,1.905-2.88,1.905
		c-1.801,0-3.262-1.461-3.262-3.263s1.461-3.262,3.262-3.262c1.325,0,2.459,1.013,2.971,2.146h3.843v0.021h0.436l1.555,4.417
		l45.237,1.742l0,0c0.146,0.003,2.673,0.113,2.674,3.28H75.04v0.002l-0.005-1.027v-0.041l-6.711-0.238v1.912h6.716v-0.605
		c0,0,2.263,0,2.437,0c0-0.002,0-0.002,0-0.002h0.002v15.621c0.009,0,0.016,0,0.021,0C77.5,60.96,74.949,61.048,74.803,61.049z
		 M36.111,59.842l4.246-0.105l-0.613-3.686h-4.693L36.111,59.842z M34.696,54.229h4.743l-0.314-1.885h-5.279L34.696,54.229z
		 M37.027,39.75l-6.78-0.24l1.045,3.268h6.239L37.027,39.75z M37.834,44.6h-6.188l0.78,1.994h5.74L37.834,44.6z M38.472,48.416
		h-5.69l0.71,1.986h5.311L38.472,48.416z M46.439,40.086l-7.522-0.268l0.493,2.959h7.171L46.439,40.086z M46.679,44.6h-6.966
		l0.333,1.994h6.738L46.679,44.6z M46.881,48.416h-6.53l0.33,1.986h6.306L46.881,48.416z M47.089,52.344h-6.085l0.314,1.885h5.871
		L47.089,52.344z M47.285,56.051h-5.662l0.606,3.639l5.242-0.131L47.285,56.051z M56.083,40.429l-7.761-0.275l0.138,2.624h7.729
		L56.083,40.429z M56.272,44.6h-7.715l0.105,1.994h7.701L56.272,44.6z M56.446,48.416H48.76l0.105,1.986h7.671L56.446,48.416z
		 M56.625,52.344h-7.657l0.101,1.885h7.643L56.625,52.344z M56.793,56.051h-7.629l0.185,3.463l7.593-0.189L56.793,56.051z
		 M66.445,40.798l-8.48-0.302l0.104,2.281h8.376V40.798z M66.445,44.6h-8.294l0.092,1.994h8.202V44.6z M66.445,48.416h-8.12
		l0.09,1.986h8.03V48.416z M66.445,52.344h-7.941l0.086,1.885h7.855V52.344z M66.445,56.051h-7.773l0.147,3.227l7.626-0.189V56.051z
		 M75.04,44.6h-6.716v1.994h6.716V44.6z M75.04,48.416h-6.716v1.986h6.716V48.416z M75.04,52.344h-6.716v1.885h6.716V52.344z
		 M75.04,56.051h-6.716v2.99l6.695-0.166v-0.08l0.021-1.004V56.051z M43.214,70.193c3.402,0,6.161,2.758,6.161,6.16
		s-2.759,6.16-6.161,6.16s-6.161-2.758-6.161-6.16S39.812,70.193,43.214,70.193z M43.214,79.172c1.557,0,2.818-1.262,2.818-2.818
		s-1.262-2.818-2.818-2.818c-1.556,0-2.817,1.262-2.817,2.818S41.658,79.172,43.214,79.172z M68.806,70.193
		c3.402,0,6.16,2.758,6.16,6.16s-2.758,6.16-6.16,6.16c-3.403,0-6.161-2.758-6.161-6.16S65.402,70.193,68.806,70.193z
		 M68.806,79.172c1.557,0,2.818-1.262,2.818-2.818s-1.262-2.818-2.818-2.818s-2.818,1.262-2.818,2.818S67.249,79.172,68.806,79.172z
		"/>
	<g>
		<path fill-rule="evenodd" clip-rule="evenodd" fill="#FFFFFF" d="M77.7,81.824c-0.818,0-1.589-0.321-2.169-0.9l-4.02-4.02
			c-0.047,0.082-0.093,0.162-0.136,0.238c-0.554,0.98-0.692,1.218-0.898,1.425c-0.413,0.413-0.954,0.642-1.522,0.642
			c-0.964,0-1.824-0.658-2.094-1.598c-0.255-0.893-3.385-12.614-3.541-13.215c-0.171-0.664-0.031-1.351,0.382-1.885
			c0.411-0.531,1.032-0.836,1.703-0.836c0.191,0,0.384,0.023,0.573,0.076c1.134,0.301,12.61,3.376,13.16,3.525
			c0.777,0.211,1.359,0.787,1.561,1.537c0.198,0.746-0.021,1.553-0.574,2.104c-0.18,0.18-0.349,0.276-1.158,0.737
			c-0.199,0.111-0.427,0.24-0.679,0.385l4.062,4.064c0.581,0.578,0.899,1.35,0.899,2.169c0,0.821-0.318,1.591-0.899,2.171
			l-2.479,2.479C79.292,81.503,78.521,81.824,77.7,81.824z"/>
		<path fill-rule="evenodd" clip-rule="evenodd" fill="#B482AD" d="M81.422,77.516l-2.48,2.479c-0.686,0.686-1.795,0.686-2.479,0
			l-5.232-5.232c-0.933,1.582-1.53,2.725-1.682,2.875c-0.495,0.495-1.247,0.223-1.42-0.386c-0.238-0.831-3.349-12.467-3.534-13.185
			c-0.166-0.643,0.396-1.218,1.045-1.045c0.99,0.266,12.575,3.367,13.154,3.524c0.721,0.197,0.852,0.995,0.403,1.442
			c-0.11,0.111-1.313,0.744-2.986,1.746c-0.015,0.014-0.03,0.03-0.044,0.045l5.256,5.256C82.106,75.719,82.106,76.83,81.422,77.516z
			"/>
	</g>
</g>
</svg>
