<?xml version="1.0" encoding="utf-8"?>
<!-- Generator: Adobe Illustrator 23.0.1, SVG Export Plug-In . SVG Version: 6.00 Build 0)  -->
<svg version="1.1" id="Vrstva_1" xmlns="http://www.w3.org/2000/svg" xmlns:xlink="http://www.w3.org/1999/xlink" x="0px" y="0px"
	 viewBox="0 0 105 105" enable-background="new 0 0 105 105" xml:space="preserve">
<g>
	<g>
		<g>
			<circle fill-rule="evenodd" clip-rule="evenodd" fill="#EEEEEE" cx="52.5" cy="52.5" r="50"/>
			<path fill="#ABB4BB" d="M52.5,104C24.1,104,1,80.9,1,52.5S24.1,1,52.5,1S104,24.1,104,52.5S80.9,104,52.5,104z M52.5,4
				C25.8,4,4,25.8,4,52.5S25.8,101,52.5,101S101,79.2,101,52.5S79.2,4,52.5,4z"/>
		</g>
	</g>
	<path id="cart_1_" fill-rule="evenodd" clip-rule="evenodd" fill="#ABB4BB" d="M74.8,61L74.8,61l-39.1,1.2c0,0,0,0-0.1,0
		c-1.8-0.1-1.9,2.4,0.3,2.3c0.1,0,0.2,0,0.3,0h39.1c0.8,0,1.5,0.5,1.5,1.4c0,0.8-0.7,2.3-1.5,2.3H36.2c-0.1,0-0.2,0-0.3,0
		c-6.2-0.1-5.6-8.3-2.4-8.3c0.1-0.1,0.2-0.1,0.3,0l-7.5-24.7h-2.7c-0.5,1-1.6,1.9-2.9,1.9c-1.8,0-3.3-1.5-3.3-3.3s1.5-3.3,3.3-3.3
		c1.3,0,2.5,1,3,2.1h3.8v0H28l1.6,4.4l45.2,1.7l0,0c0.1,0,2.7,0.1,2.7,3.3H75v0l0-1v0l-6.7-0.2v1.9H75v-0.6c0,0,2.3,0,2.4,0
		c0,0,0,0,0,0h0v15.6c0,0,0,0,0,0C77.5,61,74.9,61,74.8,61z M36.1,59.8l4.2-0.1l-0.6-3.7h-4.7L36.1,59.8z M34.7,54.2h4.7l-0.3-1.9
		h-5.3L34.7,54.2z M37,39.8l-6.8-0.2l1,3.3h6.2L37,39.8z M37.8,44.6h-6.2l0.8,2h5.7L37.8,44.6z M38.5,48.4h-5.7l0.7,2h5.3L38.5,48.4
		z M46.4,40.1l-7.5-0.3l0.5,3h7.2L46.4,40.1z M46.7,44.6h-7l0.3,2h6.7L46.7,44.6z M46.9,48.4h-6.5l0.3,2H47L46.9,48.4z M47.1,52.3
		H41l0.3,1.9h5.9L47.1,52.3z M47.3,56.1h-5.7l0.6,3.6l5.2-0.1L47.3,56.1z M56.1,40.4l-7.8-0.3l0.1,2.6h7.7L56.1,40.4z M56.3,44.6
		h-7.7l0.1,2h7.7L56.3,44.6z M56.4,48.4h-7.7l0.1,2h7.7L56.4,48.4z M56.6,52.3H49l0.1,1.9h7.6L56.6,52.3z M56.8,56.1h-7.6l0.2,3.5
		l7.6-0.2L56.8,56.1z M66.4,40.8L58,40.5l0.1,2.3h8.4V40.8z M66.4,44.6h-8.3l0.1,2h8.2V44.6z M66.4,48.4h-8.1l0.1,2h8V48.4z
		 M66.4,52.3h-7.9l0.1,1.9h7.9V52.3z M66.4,56.1h-7.8l0.1,3.2l7.6-0.2V56.1z M75,44.6h-6.7v2H75V44.6z M75,48.4h-6.7v2H75V48.4z
		 M75,52.3h-6.7v1.9H75V52.3z M75,56.1h-6.7v3l6.7-0.2v-0.1l0-1V56.1z M43.2,70.2c3.4,0,6.2,2.8,6.2,6.2s-2.8,6.2-6.2,6.2
		s-6.2-2.8-6.2-6.2S39.8,70.2,43.2,70.2z M43.2,79.2c1.6,0,2.8-1.3,2.8-2.8s-1.3-2.8-2.8-2.8s-2.8,1.3-2.8,2.8S41.7,79.2,43.2,79.2z
		 M68.8,70.2c3.4,0,6.2,2.8,6.2,6.2s-2.8,6.2-6.2,6.2c-3.4,0-6.2-2.8-6.2-6.2S65.4,70.2,68.8,70.2z M68.8,79.2
		c1.6,0,2.8-1.3,2.8-2.8s-1.3-2.8-2.8-2.8S66,74.8,66,76.4S67.2,79.2,68.8,79.2z"/>
	<g>
		<path fill-rule="evenodd" clip-rule="evenodd" fill="#EEEEEE" d="M77.7,81.8c-0.8,0-1.6-0.3-2.2-0.9l-4-4c0,0.1-0.1,0.2-0.1,0.2
			c-0.6,1-0.7,1.2-0.9,1.4c-0.4,0.4-1,0.6-1.5,0.6c-1,0-1.8-0.7-2.1-1.6c-0.3-0.9-3.4-12.6-3.5-13.2c-0.2-0.7,0-1.4,0.4-1.9
			c0.4-0.5,1-0.8,1.7-0.8c0.2,0,0.4,0,0.6,0.1c1.1,0.3,12.6,3.4,13.2,3.5c0.8,0.2,1.4,0.8,1.6,1.5c0.2,0.7,0,1.6-0.6,2.1
			c-0.2,0.2-0.3,0.3-1.2,0.7c-0.2,0.1-0.4,0.2-0.7,0.4l4.1,4.1c0.6,0.6,0.9,1.3,0.9,2.2c0,0.8-0.3,1.6-0.9,2.2l-2.5,2.5
			C79.3,81.5,78.5,81.8,77.7,81.8z"/>
		<path fill-rule="evenodd" clip-rule="evenodd" fill="#ABB4BB" d="M81.4,77.5L78.9,80c-0.7,0.7-1.8,0.7-2.5,0l-5.2-5.2
			c-0.9,1.6-1.5,2.7-1.7,2.9c-0.5,0.5-1.2,0.2-1.4-0.4c-0.2-0.8-3.3-12.5-3.5-13.2c-0.2-0.6,0.4-1.2,1-1c1,0.3,12.6,3.4,13.2,3.5
			c0.7,0.2,0.9,1,0.4,1.4c-0.1,0.1-1.3,0.7-3,1.7c0,0,0,0,0,0l5.3,5.3C82.1,75.7,82.1,76.8,81.4,77.5z"/>
	</g>
</g>
</svg>
