<?xml version="1.0" encoding="utf-8"?>
<!-- Generator: Adobe Illustrator 16.0.0, SVG Export Plug-In . SVG Version: 6.00 Build 0)  -->
<!DOCTYPE svg PUBLIC "-//W3C//DTD SVG 1.1//EN" "http://www.w3.org/Graphics/SVG/1.1/DTD/svg11.dtd">
<svg version="1.1" id="Vrstva_1" xmlns="http://www.w3.org/2000/svg" xmlns:xlink="http://www.w3.org/1999/xlink" x="0px" y="0px"
	 width="105px" height="105px" viewBox="0 0 105 105" enable-background="new 0 0 105 105" xml:space="preserve">
<g>
	<g>
		<circle fill-rule="evenodd" clip-rule="evenodd" fill="#FFFFFF" cx="52.5" cy="52.5" r="50"/>
		<path fill="#ED6B28" d="M52.5,104C24.104,104,1,80.896,1,52.5C1,24.103,24.104,1,52.5,1S104,24.103,104,52.5
			C104,80.896,80.896,104,52.5,104z M52.5,4C25.757,4,4,25.757,4,52.5S25.757,101,52.5,101S101,79.243,101,52.5S79.243,4,52.5,4z"/>
	</g>
	<g>
		<path id="mail_2_" fill-rule="evenodd" clip-rule="evenodd" fill="#ED6B28" d="M74.521,74.5H30.478
			c-1.695,0-3.071-1.349-3.071-3.011V48.402l0,0c0-1.5,0-4.315,0-5.834c0-2.134,1.442-2.761,1.442-2.761L52.5,24.5l23.651,15.308
			c0,0,1.442,0.627,1.442,2.761c0,1.519,0,4.334,0,5.834l0,0v23.087C77.594,73.151,76.218,74.5,74.521,74.5z M32.526,72.493h39.947
			c0.691,0,1.324-0.233,1.838-0.612L52.5,59.192L30.712,71.9C31.222,72.269,31.846,72.493,32.526,72.493z M57.803,58.774
			l6.742-4.666V41.345h-24.09v12.698l6.838,4.731l5.207-2.928L57.803,58.774z M29.392,69.261l15.682-9.23L29.392,49.413V69.261z
			 M75.587,44.575c0-2.133-1.443-2.76-1.443-2.76L52.5,27.808L30.856,41.815c0,0-1.443,0.627-1.443,2.76
			c0,0.931,0.041,1.854,0.041,1.854l1.967,1.362c0-1.123,0-2.603,0-3.278c0-1.16,1.192-1.631,1.192-1.631L52.5,30.648l19.887,12.233
			c0,0,1.192,0.471,1.192,1.631c0,0.689,0,2.216,0,3.344l1.966-1.36C75.545,46.496,75.587,44.822,75.587,44.575z M75.608,49.479
			L60.022,60.03l15.586,9.175V49.479z M44.47,51.414H60.53v1.003H44.47V51.414z M44.47,48.402H60.53v1.004H44.47V48.402z
			 M44.47,45.391H60.53v1.004H44.47V45.391z"/>
	</g>
	<g>
		<path fill-rule="evenodd" clip-rule="evenodd" fill="#FFFFFF" d="M76.951,82.574c-0.818,0-1.589-0.321-2.169-0.9l-4.02-4.02
			c-0.047,0.082-0.093,0.162-0.136,0.238c-0.554,0.979-0.692,1.218-0.898,1.425c-0.413,0.412-0.954,0.641-1.522,0.641
			c-0.964,0-1.824-0.657-2.094-1.597c-0.255-0.893-3.385-12.614-3.541-13.216c-0.171-0.663-0.031-1.35,0.382-1.885
			c0.411-0.53,1.032-0.835,1.703-0.835c0.191,0,0.384,0.023,0.573,0.076c1.134,0.301,12.61,3.376,13.16,3.524
			c0.777,0.212,1.359,0.787,1.561,1.537c0.198,0.746-0.021,1.554-0.574,2.105c-0.18,0.18-0.349,0.275-1.158,0.737
			c-0.199,0.111-0.427,0.24-0.679,0.385l4.062,4.064c0.581,0.578,0.899,1.35,0.899,2.169c0,0.82-0.318,1.59-0.899,2.17l-2.479,2.479
			C78.543,82.253,77.771,82.574,76.951,82.574z"/>
		<path fill-rule="evenodd" clip-rule="evenodd" fill="#ED6B28" d="M80.673,78.265l-2.48,2.479c-0.686,0.685-1.795,0.685-2.479,0
			l-5.232-5.232c-0.933,1.582-1.53,2.724-1.682,2.875c-0.495,0.495-1.247,0.222-1.42-0.386c-0.238-0.832-3.349-12.467-3.534-13.185
			c-0.166-0.643,0.396-1.218,1.045-1.045c0.99,0.265,12.575,3.367,13.154,3.524c0.721,0.197,0.852,0.994,0.403,1.442
			c-0.11,0.111-1.313,0.744-2.986,1.746c-0.015,0.014-0.03,0.03-0.044,0.045l5.256,5.255C81.357,76.469,81.357,77.579,80.673,78.265
			z"/>
	</g>
</g>
</svg>
