<?xml version="1.0" encoding="utf-8"?>
<!-- Generator: Adobe Illustrator 23.0.1, SVG Export Plug-In . SVG Version: 6.00 Build 0)  -->
<svg version="1.1" id="Vrstva_1" xmlns="http://www.w3.org/2000/svg" xmlns:xlink="http://www.w3.org/1999/xlink" x="0px" y="0px"
	 viewBox="0 0 105 105" style="enable-background:new 0 0 105 105;" xml:space="preserve">
<style type="text/css">
	.st0{fill-rule:evenodd;clip-rule:evenodd;fill:#EEEEEE;}
	.st1{fill:#ABB4BB;}
	.st2{fill-rule:evenodd;clip-rule:evenodd;fill:#ABB4BB;}
</style>
<g>
	<g>
		<circle class="st0" cx="52.5" cy="52.5" r="50"/>
		<path class="st1" d="M52.5,104C24.1,104,1,80.9,1,52.5C1,24.1,24.1,1,52.5,1S104,24.1,104,52.5C104,80.9,80.9,104,52.5,104z
			 M52.5,4C25.8,4,4,25.8,4,52.5S25.8,101,52.5,101S101,79.2,101,52.5S79.2,4,52.5,4z"/>
	</g>
	<g>
		<path id="mail_2_" class="st2" d="M74.5,74.5h-44c-1.7,0-3.1-1.3-3.1-3V48.4l0,0c0-1.5,0-4.3,0-5.8c0-2.1,1.4-2.8,1.4-2.8
			l23.7-15.3l23.7,15.3c0,0,1.4,0.6,1.4,2.8c0,1.5,0,4.3,0,5.8l0,0v23.1C77.6,73.2,76.2,74.5,74.5,74.5z M32.5,72.5h39.9
			c0.7,0,1.3-0.2,1.8-0.6L52.5,59.2L30.7,71.9C31.2,72.3,31.8,72.5,32.5,72.5z M57.8,58.8l6.7-4.7V41.3H40.5V54l6.8,4.7l5.2-2.9
			L57.8,58.8z M29.4,69.3L45.1,60L29.4,49.4V69.3z M75.6,44.6c0-2.1-1.4-2.8-1.4-2.8l-21.6-14l-21.6,14c0,0-1.4,0.6-1.4,2.8
			c0,0.9,0,1.9,0,1.9l2,1.4c0-1.1,0-2.6,0-3.3c0-1.2,1.2-1.6,1.2-1.6l19.9-12.2l19.9,12.2c0,0,1.2,0.5,1.2,1.6c0,0.7,0,2.2,0,3.3
			l2-1.4C75.5,46.5,75.6,44.8,75.6,44.6z M75.6,49.5L60,60l15.6,9.2V49.5z M44.5,51.4h16.1v1H44.5V51.4z M44.5,48.4h16.1v1H44.5
			V48.4z M44.5,45.4h16.1v1H44.5V45.4z"/>
	</g>
	<g>
		<path class="st0" d="M77,82.6c-0.8,0-1.6-0.3-2.2-0.9l-4-4c0,0.1-0.1,0.2-0.1,0.2c-0.6,1-0.7,1.2-0.9,1.4c-0.4,0.4-1,0.6-1.5,0.6
			c-1,0-1.8-0.7-2.1-1.6c-0.3-0.9-3.4-12.6-3.5-13.2c-0.2-0.7,0-1.3,0.4-1.9c0.4-0.5,1-0.8,1.7-0.8c0.2,0,0.4,0,0.6,0.1
			c1.1,0.3,12.6,3.4,13.2,3.5c0.8,0.2,1.4,0.8,1.6,1.5c0.2,0.7,0,1.6-0.6,2.1c-0.2,0.2-0.3,0.3-1.2,0.7c-0.2,0.1-0.4,0.2-0.7,0.4
			l4.1,4.1c0.6,0.6,0.9,1.3,0.9,2.2c0,0.8-0.3,1.6-0.9,2.2l-2.5,2.5C78.5,82.3,77.8,82.6,77,82.6z"/>
		<path class="st2" d="M80.7,78.3l-2.5,2.5c-0.7,0.7-1.8,0.7-2.5,0l-5.2-5.2c-0.9,1.6-1.5,2.7-1.7,2.9c-0.5,0.5-1.2,0.2-1.4-0.4
			c-0.2-0.8-3.3-12.5-3.5-13.2c-0.2-0.6,0.4-1.2,1-1c1,0.3,12.6,3.4,13.2,3.5c0.7,0.2,0.9,1,0.4,1.4c-0.1,0.1-1.3,0.7-3,1.7
			c0,0,0,0,0,0l5.3,5.3C81.4,76.5,81.4,77.6,80.7,78.3z"/>
	</g>
</g>
</svg>
