<svg xmlns="http://www.w3.org/2000/svg" viewBox="0 0 100.24 91.1"><title>logo-heureka-2020</title><path d="M52.38,2.65A42.92,42.92,0,0,1,94,35.1h2.72a45.55,45.55,0,0,0-86.81-6h2.85A42.9,42.9,0,0,1,52.38,2.65Z" transform="translate(-0.23 0)" style="fill:#00aad6"/><path d="M92.36,61.1A42.9,42.9,0,0,1,12,60L9.18,60a45.55,45.55,0,0,0,86,1.11Z" transform="translate(-0.23 0)" style="fill:#00aad6"/><path d="M35.63,52.77a1.4,1.4,0,0,1-2.8,0h0V46.94H25.88v5.83a1.42,1.42,0,0,1-1.53,1.29,1.4,1.4,0,0,1-1.28-1.29V38.92a1.4,1.4,0,0,1,1.52-1.29,1.42,1.42,0,0,1,1.29,1.29v5.46h7V38.92a1.4,1.4,0,0,1,2.8,0Z" transform="translate(-0.23 0)" style="fill:#00aad6"/><path d="M43,42.67a4.48,4.48,0,0,1,4.84,4.1,5.61,5.61,0,0,1,0,.71c0,.89,0,1.93-1.48,1.93h-6c0,1.74,1.23,2.54,2.83,2.54a4.18,4.18,0,0,0,2.39-.75,1.33,1.33,0,0,1,.77-.27,1.15,1.15,0,0,1,1.16,1.12h0a1.21,1.21,0,0,1-.41.89,5.66,5.66,0,0,1-3.89,1.33c-3.36,0-5.44-1.81-5.44-5.85,0-3.7,1.93-5.77,5.22-5.77m-2.54,4.56h4.79a2.16,2.16,0,0,0-2-2.33H43A2.36,2.36,0,0,0,40.49,47v.17" transform="translate(-0.23 0)" style="fill:#00aad6"/><path d="M52.17,44.12v5.63a1.89,1.89,0,0,0,1.58,2.17,1.94,1.94,0,0,0,.59,0,1.9,1.9,0,0,0,2.16-1.6,1.82,1.82,0,0,0,0-.57V44.12a1.31,1.31,0,0,1,2.61-.23v5.86c0,2.37-.9,4.54-4.77,4.54s-4.78-2.17-4.78-4.54V44.12a1.31,1.31,0,0,1,2.61-.23v.23" transform="translate(-0.23 0)" style="fill:#00aad6"/><path d="M64,44.24a3,3,0,0,1,2.61-1.55,1.24,1.24,0,0,1,.22,2.47.81.81,0,0,1-.22,0A2.46,2.46,0,0,0,64,47.43a1.88,1.88,0,0,0,0,.41v5A1.32,1.32,0,0,1,62.59,54a1.3,1.3,0,0,1-1.19-1.19V44.12A1.31,1.31,0,0,1,64,43.89v.35Z" transform="translate(-0.23 0)" style="fill:#00aad6"/><path d="M73.73,42.67c4.08,0,4.83,3.14,4.83,4.81,0,.89,0,1.93-1.47,1.93h-6c0,1.74,1.23,2.54,2.83,2.54a4.18,4.18,0,0,0,2.39-.75,1.33,1.33,0,0,1,.77-.27A1.14,1.14,0,0,1,78.25,52h0a1.21,1.21,0,0,1-.41.89A5.66,5.66,0,0,1,74,54.27c-3.36,0-5.44-1.81-5.44-5.85,0-3.7,1.93-5.77,5.22-5.77m-2.54,4.56H76a2.16,2.16,0,0,0-2-2.33h-.28A2.36,2.36,0,0,0,71.19,47v.17" transform="translate(-0.23 0)" style="fill:#00aad6"/><path d="M87.48,53.66l-3.6-4.83-.77.6v3.49a1.26,1.26,0,0,1-1.27,1.25h0A1.24,1.24,0,0,1,80.5,53V38.05a1.23,1.23,0,0,1,1.22-1.25h.08A1.26,1.26,0,0,1,83.11,38v8.58l4.37-3.43a1.26,1.26,0,0,1,1.91,1.63,1.2,1.2,0,0,1-.29.26l-3.16,2.42,3.55,4.66a1.39,1.39,0,0,1,.27.78,1.25,1.25,0,0,1-1.25,1.25h0a1.23,1.23,0,0,1-1-.51" transform="translate(-0.23 0)" style="fill:#00aad6"/><path d="M93.24,45.91a1.23,1.23,0,0,1-.73.24,1.12,1.12,0,0,1-1.13-1.1,1.13,1.13,0,0,1,.31-.8,5.07,5.07,0,0,1,4-1.54c3,0,4.79,1.47,4.79,4V52.9a1.28,1.28,0,0,1-2.56,0h0a3.38,3.38,0,0,1-3.17,1.4c-2.37,0-3.94-1.47-3.94-3.65s1.81-3.41,3.92-3.41h3.15v-.43c0-1.09-.79-1.81-2.2-1.81a3.91,3.91,0,0,0-2.41.92m4.61,4v-.68H95c-1.07,0-1.65.51-1.65,1.38s.65,1.48,2,1.48a2.28,2.28,0,0,0,2.49-2.05.45.45,0,0,1,0-.11" transform="translate(-0.23 0)" style="fill:#00aad6"/><path d="M18.51,53.05l-3.22-3.22h0a8.64,8.64,0,1,0-2.36,1.84l3.48,3.48a1.48,1.48,0,0,0,2.1-2.1h0m-15.77-9a6.16,6.16,0,0,1,6.14-6.12,6,6,0,0,1,3.37,1l-3.52,5.7L7.26,42.7a1.14,1.14,0,0,0-.91-.45,1.14,1.14,0,0,0-.92,1.8l2.45,3.3a1.18,1.18,0,0,0,.92.45h.08a1.14,1.14,0,0,0,.92-.54L14,40.57A6.17,6.17,0,1,1,3.85,47.63,6.11,6.11,0,0,1,2.74,44.1" transform="translate(-0.23 0)" style="fill:#ff7b00"/></svg>