<svg xmlns="http://www.w3.org/2000/svg" viewBox="0 0 100.71 91.1"><title>logo-heureka-2020-skrtnuta</title><path d="M53.5,97.05A45.55,45.55,0,1,1,99.05,51.5,45.55,45.55,0,0,1,53.5,97.05Zm0-88.45A42.9,42.9,0,1,0,96.4,51.5,42.9,42.9,0,0,0,53.5,8.6Z" transform="translate(-1.44 -5.95)" style="fill:#00aad6"/><rect x="90.3" y="35.52" width="10.42" height="25.35" style="fill:#fff"/><rect x="3.3" y="29.33" width="10.42" height="30.53" style="fill:#fff"/><path d="M36.75,58.72a1.4,1.4,0,1,1-2.8,0V52.89H27v5.83a1.41,1.41,0,0,1-2.81,0V44.87a1.41,1.41,0,0,1,2.81,0v5.46H34V44.87a1.4,1.4,0,0,1,2.8,0Z" transform="translate(-1.44 -5.95)" style="fill:#00aad6"/><path d="M44.15,48.62A4.49,4.49,0,0,1,49,53.43c0,.89,0,1.93-1.48,1.93h-6c0,1.74,1.23,2.54,2.83,2.54a4.11,4.11,0,0,0,2.39-.75,1.31,1.31,0,0,1,.77-.27A1.14,1.14,0,0,1,48.67,58a1.18,1.18,0,0,1-.41.89,5.66,5.66,0,0,1-3.89,1.33c-3.36,0-5.44-1.81-5.44-5.85,0-3.7,1.93-5.77,5.22-5.77m-2.54,4.56H46.4a2.16,2.16,0,0,0-2.25-2.34,2.36,2.36,0,0,0-2.54,2.34" transform="translate(-1.44 -5.95)" style="fill:#00aad6"/><path d="M53.29,50.07V55.7a1.9,1.9,0,0,0,2.17,2.17,1.9,1.9,0,0,0,2.16-2.17V50.07a1.31,1.31,0,1,1,2.61,0V55.7c0,2.37-.9,4.54-4.77,4.54s-4.78-2.17-4.78-4.54V50.07a1.31,1.31,0,1,1,2.61,0" transform="translate(-1.44 -5.95)" style="fill:#00aad6"/><path d="M65.13,50.19a3,3,0,0,1,2.61-1.55,1.24,1.24,0,1,1,0,2.47,2.45,2.45,0,0,0-2.61,2.68v5a1.31,1.31,0,0,1-2.61,0V50.07a1.31,1.31,0,1,1,2.61,0Z" transform="translate(-1.44 -5.95)" style="fill:#00aad6"/><path d="M74.85,48.62c4.08,0,4.83,3.14,4.83,4.81,0,.89,0,1.93-1.47,1.93h-6c0,1.74,1.23,2.54,2.83,2.54a4.11,4.11,0,0,0,2.39-.75,1.31,1.31,0,0,1,.77-.27A1.14,1.14,0,0,1,79.37,58a1.18,1.18,0,0,1-.41.89,5.66,5.66,0,0,1-3.89,1.33c-3.36,0-5.44-1.81-5.44-5.85,0-3.7,1.93-5.77,5.22-5.77m-2.54,4.56H77.1a2.16,2.16,0,0,0-2.25-2.34,2.36,2.36,0,0,0-2.54,2.34" transform="translate(-1.44 -5.95)" style="fill:#00aad6"/><path d="M88.6,59.61,85,54.78l-.77.6v3.49a1.26,1.26,0,0,1-1.31,1.25,1.24,1.24,0,0,1-1.3-1.25V44a1.24,1.24,0,0,1,1.3-1.25A1.26,1.26,0,0,1,84.23,44v8.54l4.37-3.43A1.26,1.26,0,1,1,90.22,51l-3.16,2.42,3.55,4.66a1.34,1.34,0,0,1,.27.78,1.25,1.25,0,0,1-1.26,1.25,1.22,1.22,0,0,1-1-.51" transform="translate(-1.44 -5.95)" style="fill:#00aad6"/><path d="M94.36,51.86a1.23,1.23,0,0,1-.73.24A1.13,1.13,0,0,1,92.5,51a1.17,1.17,0,0,1,.31-.8,5.08,5.08,0,0,1,4-1.54c3,0,4.79,1.47,4.79,4v6.19a1.28,1.28,0,1,1-2.56,0,3.37,3.37,0,0,1-3.17,1.4c-2.37,0-3.94-1.47-3.94-3.65s1.81-3.41,3.92-3.41H99v-.43c0-1.09-.79-1.81-2.2-1.81a3.94,3.94,0,0,0-2.41.92m4.61,4v-.68H96.15c-1.07,0-1.65.51-1.65,1.38s.65,1.48,2,1.48A2.28,2.28,0,0,0,99,55.89" transform="translate(-1.44 -5.95)" style="fill:#00aad6"/><path d="M19.63,59l-3.22-3.22h0a8.64,8.64,0,1,0-2.36,1.84l3.48,3.48a1.48,1.48,0,0,0,2.1-2.1m-15.77-9A6.17,6.17,0,0,1,10,43.88a6.08,6.08,0,0,1,3.37,1L9.85,50.58,8.38,48.65a1.13,1.13,0,0,0-.91-.45A1.15,1.15,0,0,0,6.55,50L9,53.3a1.18,1.18,0,0,0,.92.45H10a1.13,1.13,0,0,0,.92-.54l4.17-6.69A6.17,6.17,0,1,1,3.86,50.05" transform="translate(-1.44 -5.95)" style="fill:#ff7b00"/><rect x="51.57" y="16.74" width="3.86" height="71.48" rx="1.63" transform="translate(127 47.1) rotate(135.98)" style="fill:#ff7b00"/><rect x="51.58" y="16.74" width="3.83" height="71.48" rx="1.63" transform="translate(54.71 121.43) rotate(-136.47)" style="fill:#ff7b00"/></svg>