<?xml version="1.0" encoding="utf-8"?>
<!-- Generator: Adobe Illustrator 23.0.1, SVG Export Plug-In . SVG Version: 6.00 Build 0)  -->
<svg version="1.1" id="Vrstva_1" xmlns="http://www.w3.org/2000/svg" xmlns:xlink="http://www.w3.org/1999/xlink" x="0px" y="0px"
	 viewBox="0 0 105 105" style="enable-background:new 0 0 105 105;" xml:space="preserve">
<style type="text/css">
	.st0{fill-rule:evenodd;clip-rule:evenodd;fill:#FFED00;}
	.st1{fill-rule:evenodd;clip-rule:evenodd;fill:#EEEEEE;}
	.st2{fill:#ABB4BB;}
</style>
<g>
	<circle class="st0" cx="52.5" cy="54" r="50"/>
	<g>
		<g>
			<circle class="st1" cx="52.5" cy="52.5" r="50"/>
			<path class="st2" d="M52.5,104C24.1,104,1,80.9,1,52.5C1,24.1,24.1,1,52.5,1S104,24.1,104,52.5C104,80.9,80.9,104,52.5,104z
				 M52.5,4C25.8,4,4,25.8,4,52.5S25.8,101,52.5,101S101,79.2,101,52.5S79.2,4,52.5,4z"/>
		</g>
	</g>
	<path class="st2" d="M74.8,77.5H30.2c-1.5,0-2.7-1.2-2.7-2.8V30.3c0-1.5,1.2-2.8,2.7-2.8h44.6c1.5,0,2.7,1.3,2.7,2.8v44.4
		C77.5,76.3,76.3,77.5,74.8,77.5L74.8,77.5z M72.5,35.4c0-1.6-1.2-2.9-2.8-2.9H35.3c-1.6,0-2.8,1.3-2.8,2.9v34.2
		c0,1.6,1.3,2.9,2.8,2.9h34.4c1.5,0,2.8-1.3,2.8-2.9L72.5,35.4L72.5,35.4z M69.2,43.7c-0.9,0-6.6,0-7.2,0c-0.4,0-0.7-0.4-0.7-0.7
		c0-0.3,0-6.7,0-7.4c0-0.7,0.6-0.7,0.9-0.7c4.1,0.4,7.3,3.6,7.9,7.7C70.1,43,70,43.7,69.2,43.7L69.2,43.7z M58.7,55.1
		c-4.9,0-8.9-4-8.9-8.9c0-4.6,3.4-8.3,7.9-8.8c0.3,0,1,0.1,1,0.6c0,0.5,0,7.1,0,7.3c0,0.3,0.1,0.8,0.8,0.8c0.7,0,6.4,0,7.1,0
		s0.9,0.5,0.9,0.7C67.2,51.5,63.4,55.1,58.7,55.1L58.7,55.1z M44.3,40h-6.1c-1,0-2-0.8-2-1.9c0-1,1-1.9,2-1.9h6.1
		c1,0,1.9,0.8,1.9,1.9C46.2,39.2,45.4,40,44.3,40L44.3,40z M45.6,46.2h-7.3c-1,0-2-0.8-2-1.9c0-1,1-1.9,2-1.9h7.3
		c1,0,1.9,0.8,1.9,1.9C47.5,45.4,46.6,46.2,45.6,46.2L45.6,46.2z M39.3,52.5h-1.1c-1,0-2-0.8-2-1.9c0-1,1-1.9,2-1.9h1.1
		c1,0,1.9,0.8,1.9,1.9C41.2,51.7,40.4,52.5,39.3,52.5L39.3,52.5z M67.5,68.8c-0.7,0-1.3-0.6-1.3-1.2v-4.8c0-0.7,0.6-1.2,1.3-1.2
		s1.2,0.6,1.2,1.2v4.8C68.7,68.2,68.2,68.8,67.5,68.8L67.5,68.8z M63.7,68.8c-0.7,0-1.2-0.6-1.2-1.2V59c0-0.7,0.6-1.2,1.2-1.2
		c0.7,0,1.2,0.6,1.2,1.2v8.5C65,68.2,64.4,68.8,63.7,68.8L63.7,68.8z M60,68.8c-0.7,0-1.3-0.6-1.3-1.2v-7.3c0-0.7,0.6-1.2,1.3-1.2
		c0.7,0,1.2,0.5,1.2,1.2v7.3C61.2,68.2,60.7,68.8,60,68.8L60,68.8z M56.2,68.8c-0.7,0-1.2-0.6-1.2-1.2V64c0-0.7,0.6-1.2,1.2-1.2
		c0.7,0,1.3,0.6,1.3,1.2v3.5C57.5,68.2,56.9,68.8,56.2,68.8L56.2,68.8z M52.5,68.8c-0.7,0-1.2-0.6-1.2-1.2v-4.8
		c0-0.7,0.6-1.2,1.2-1.2c0.7,0,1.2,0.6,1.2,1.2v4.8C53.7,68.2,53.2,68.8,52.5,68.8L52.5,68.8z M48.7,68.8c-0.7,0-1.2-0.6-1.2-1.2V59
		c0-0.7,0.6-1.2,1.2-1.2c0.7,0,1.2,0.6,1.2,1.2v8.5C50,68.2,49.4,68.8,48.7,68.8L48.7,68.8z M45,68.8c-0.7,0-1.2-0.6-1.2-1.2v-6
		c0-0.7,0.6-1.2,1.2-1.2c0.7,0,1.2,0.6,1.2,1.2v6C46.2,68.2,45.7,68.8,45,68.8L45,68.8z M41.3,68.8c-0.7,0-1.3-0.6-1.3-1.2v-7.3
		c0-0.7,0.6-1.2,1.3-1.2c0.7,0,1.2,0.5,1.2,1.2v7.3C42.5,68.2,41.9,68.8,41.3,68.8L41.3,68.8z M37.5,68.8c-0.7,0-1.2-0.6-1.2-1.2
		v-4.1c0-0.7,0.6-1.2,1.2-1.2s1.2,0.5,1.2,1.2v4.1C38.7,68.2,38.2,68.8,37.5,68.8L37.5,68.8z"/>
</g>
</svg>
