<svg id="Vrstva_1" data-name="Vrstva 1" xmlns="http://www.w3.org/2000/svg" viewBox="0 0 103 103"><defs><style>.cls-1{fill:#ffed00;}.cls-2{fill:#fff;}.cls-3{fill:#f7b700;}.cls-4{fill:#fbba00;}</style></defs><title>nf_icon_04_zluta</title><circle class="cls-1" cx="51.5" cy="53" r="50"/><circle class="cls-2" cx="51.5" cy="51.5" r="50"/><path class="cls-3" d="M52.5,104A51.5,51.5,0,1,1,104,52.5,51.55,51.55,0,0,1,52.5,104Zm0-100A48.5,48.5,0,1,0,101,52.5,48.56,48.56,0,0,0,52.5,4Z" transform="translate(-1 -1)"/><path class="cls-4" d="M74.78,77.5H30.23a2.76,2.76,0,0,1-2.73-2.79V30.29a2.76,2.76,0,0,1,2.73-2.79H74.78a2.76,2.76,0,0,1,2.72,2.79V74.71a2.76,2.76,0,0,1-2.72,2.79ZM72.49,35.39a2.83,2.83,0,0,0-2.78-2.89H35.3a2.86,2.86,0,0,0-2.81,2.89V69.62a2.85,2.85,0,0,0,2.81,2.89H69.69a2.84,2.84,0,0,0,2.8-2.89V35.39Zm-3.31,8.35H61.94a.73.73,0,0,1-.7-.74V35.63c0-.67.62-.73.93-.7A8.88,8.88,0,0,1,70,42.59c0,.38,0,1.15-.84,1.15ZM58.74,55.13a8.85,8.85,0,0,1-1-17.65c.32,0,1,.09,1,.61v7.34a.72.72,0,0,0,.79.82h7.12c.74,0,.93.5.91.74a8.88,8.88,0,0,1-8.82,8.14ZM44.33,40h-6.1a1.88,1.88,0,1,1,0-3.75h6.1a1.88,1.88,0,1,1,0,3.75Zm1.25,6.25H38.23a1.88,1.88,0,1,1,0-3.75h7.35a1.88,1.88,0,1,1,0,3.75ZM39.33,52.5h-1.1a1.88,1.88,0,1,1,0-3.75h1.1a1.88,1.88,0,1,1,0,3.75ZM67.5,68.8a1.26,1.26,0,0,1-1.26-1.24V62.79a1.26,1.26,0,0,1,1.26-1.23,1.24,1.24,0,0,1,1.24,1.23v4.77A1.24,1.24,0,0,1,67.5,68.8Zm-3.75,0a1.25,1.25,0,0,1-1.25-1.24V59A1.25,1.25,0,0,1,65,59v8.52a1.24,1.24,0,0,1-1.24,1.24ZM60,68.8a1.26,1.26,0,0,1-1.26-1.24V60.29A1.26,1.26,0,0,1,60,59.06a1.24,1.24,0,0,1,1.24,1.23v7.27A1.24,1.24,0,0,1,60,68.8Zm-3.77,0A1.25,1.25,0,0,1,55,67.56V64a1.24,1.24,0,0,1,1.24-1.23A1.26,1.26,0,0,1,57.49,64v3.52a1.26,1.26,0,0,1-1.26,1.24Zm-3.73,0a1.25,1.25,0,0,1-1.25-1.24V62.79a1.25,1.25,0,0,1,2.49,0v4.77A1.24,1.24,0,0,1,52.5,68.8Zm-3.75,0a1.25,1.25,0,0,1-1.24-1.24V59A1.24,1.24,0,0,1,50,59v8.52a1.24,1.24,0,0,1-1.24,1.24ZM45,68.8a1.25,1.25,0,0,1-1.25-1.24v-6a1.25,1.25,0,0,1,2.49,0v6A1.24,1.24,0,0,1,45,68.8Zm-3.75,0A1.25,1.25,0,0,1,40,67.56V60.29a1.25,1.25,0,0,1,2.49,0v7.27a1.24,1.24,0,0,1-1.24,1.24Zm-3.75,0a1.25,1.25,0,0,1-1.24-1.24V63.42a1.24,1.24,0,0,1,2.48,0v4.14A1.24,1.24,0,0,1,37.5,68.8Z" transform="translate(-1 -1)"/></svg>