<svg xmlns="http://www.w3.org/2000/svg" viewBox="0 0 103 103"><title>aktualni-navstevy</title><path d="M52.5,4A48.5,48.5,0,1,0,101,52.5,48.56,48.56,0,0,0,52.5,4Z" transform="translate(-1 -1)" style="fill:#fff"/><path d="M52.5,1A51.5,51.5,0,1,0,104,52.5,51.55,51.55,0,0,0,52.5,1Zm0,100A48.5,48.5,0,1,1,101,52.5,48.56,48.56,0,0,1,52.5,101Z" transform="translate(-1 -1)" style="fill:#95c120"/><path d="M43.25,30.16a3.79,3.79,0,1,0-5-2.05A3.8,3.8,0,0,0,43.25,30.16Z" transform="translate(-1 -1)" style="fill:#95c120"/><path d="M25.19,45.31a3.79,3.79,0,1,0-2.05-5A3.8,3.8,0,0,0,25.19,45.31Z" transform="translate(-1 -1)" style="fill:#95c120"/><path d="M28.52,52.53a3.76,3.76,0,1,0-3.76,3.76A3.75,3.75,0,0,0,28.52,52.53Z" transform="translate(-1 -1)" style="fill:#95c120"/><path d="M52.5,50.88a6.28,6.28,0,1,0-6.28-6.28A6.28,6.28,0,0,0,52.5,50.88Z" transform="translate(-1 -1)" style="fill:#95c120"/><path d="M30.15,61.8a3.79,3.79,0,1,0-2.06,5A3.8,3.8,0,0,0,30.15,61.8Z" transform="translate(-1 -1)" style="fill:#95c120"/><path d="M74.89,43.26a3.79,3.79,0,1,0,2-4.95A3.78,3.78,0,0,0,74.89,43.26Z" transform="translate(-1 -1)" style="fill:#95c120"/><path d="M74.81,35.57a3.76,3.76,0,1,0-5.32,0A3.78,3.78,0,0,0,74.81,35.57Z" transform="translate(-1 -1)" style="fill:#95c120"/><path d="M52.52,28.51a3.76,3.76,0,1,0-3.76-3.75A3.75,3.75,0,0,0,52.52,28.51Z" transform="translate(-1 -1)" style="fill:#95c120"/><path d="M61.79,30.16a3.79,3.79,0,1,0-2.06-4.95A3.8,3.8,0,0,0,61.79,30.16Z" transform="translate(-1 -1)" style="fill:#95c120"/><path d="M79.84,59.75a3.79,3.79,0,1,0,2.06,5A3.78,3.78,0,0,0,79.84,59.75Z" transform="translate(-1 -1)" style="fill:#95c120"/><path d="M69.49,69.5a3.76,3.76,0,1,0,5.32,0A3.76,3.76,0,0,0,69.49,69.5Z" transform="translate(-1 -1)" style="fill:#95c120"/><path d="M61.94,63.68V58.57a4.49,4.49,0,0,0-4.5-4.49H47.53A4.49,4.49,0,0,0,43,58.57v5.11c0,2.48.51,3,3,3H58.94C61.42,66.67,61.94,66.16,61.94,63.68Z" transform="translate(-1 -1)" style="fill:#95c120"/><path d="M30.24,69.5a3.76,3.76,0,1,0,5.31,0A3.76,3.76,0,0,0,30.24,69.5Z" transform="translate(-1 -1)" style="fill:#95c120"/><path d="M80.23,48.78A3.76,3.76,0,1,0,84,52.53,3.76,3.76,0,0,0,80.23,48.78Z" transform="translate(-1 -1)" style="fill:#95c120"/><path d="M61.79,74.9A3.79,3.79,0,1,0,66.74,77,3.78,3.78,0,0,0,61.79,74.9Z" transform="translate(-1 -1)" style="fill:#95c120"/><path d="M52.52,76.49a3.76,3.76,0,1,0,3.76,3.76A3.76,3.76,0,0,0,52.52,76.49Z" transform="translate(-1 -1)" style="fill:#95c120"/><path d="M30.24,30.25a3.75,3.75,0,1,0,5.31,0A3.75,3.75,0,0,0,30.24,30.25Z" transform="translate(-1 -1)" style="fill:#95c120"/><path d="M43.25,74.9a3.79,3.79,0,1,0,2,5A3.8,3.8,0,0,0,43.25,74.9Z" transform="translate(-1 -1)" style="fill:#95c120"/></svg>