<?xml version="1.0" encoding="utf-8"?>
<!-- Generator: Adobe Illustrator 23.0.1, SVG Export Plug-In . SVG Version: 6.00 Build 0)  -->
<svg version="1.1" id="Vrstva_1" xmlns="http://www.w3.org/2000/svg" xmlns:xlink="http://www.w3.org/1999/xlink" x="0px" y="0px"
	 viewBox="0 0 105 105" style="enable-background:new 0 0 105 105;" xml:space="preserve">
<style type="text/css">
	.st0{fill-rule:evenodd;clip-rule:evenodd;fill:#EEEEEE;}
	.st1{fill:#EEEEEE;}
	.st2{fill:#ABB4BB;}
</style>
<g>
	<circle class="st0" cx="52.5" cy="52.5" r="50"/>
	<g>
		<path class="st1" d="M52.5,4C25.8,4,4,25.8,4,52.5S25.8,101,52.5,101S101,79.2,101,52.5S79.2,4,52.5,4z"/>
		<path class="st2" d="M52.5,1C24.1,1,1,24.1,1,52.5S24.1,104,52.5,104S104,80.9,104,52.5S80.9,1,52.5,1z M52.5,101
			C25.8,101,4,79.2,4,52.5S25.8,4,52.5,4S101,25.8,101,52.5S79.2,101,52.5,101z"/>
	</g>
	<g>
		<path class="st2" d="M43.2,30.2c1.9-0.8,2.9-3,2.1-5c-0.8-1.9-3-2.9-5-2.1c-1.9,0.8-2.9,3-2.1,5C39.1,30,41.3,31,43.2,30.2z"/>
		<path class="st2" d="M25.2,45.3c1.9,0.8,4.2-0.1,5-2c0.8-1.9-0.1-4.2-2.1-5c-1.9-0.8-4.1,0.1-5,2.1C22.3,42.3,23.3,44.5,25.2,45.3
			z"/>
		<path class="st2" d="M28.5,52.5c0-2.1-1.7-3.8-3.8-3.8c-2.1,0-3.8,1.7-3.8,3.8c0,2.1,1.7,3.8,3.8,3.8
			C26.8,56.3,28.5,54.6,28.5,52.5z"/>
		<path class="st2" d="M52.5,50.9c3.5,0,6.3-2.8,6.3-6.3c0-3.5-2.8-6.3-6.3-6.3c-3.5,0-6.3,2.8-6.3,6.3C46.2,48.1,49,50.9,52.5,50.9
			z"/>
		<path class="st2" d="M30.1,61.8c-0.8-1.9-3-2.9-5-2.1c-1.9,0.8-2.9,3-2,5c0.8,1.9,3,2.9,4.9,2.1C30,66,30.9,63.7,30.1,61.8z"/>
		<path class="st2" d="M74.9,43.3c0.8,1.9,3,2.9,5,2c1.9-0.8,2.9-3,2.1-5c-0.8-1.9-3-2.9-5-2.1C75,39.1,74.1,41.3,74.9,43.3z"/>
		<path class="st2" d="M74.8,35.6c1.5-1.5,1.5-3.8,0-5.3c-1.5-1.5-3.8-1.5-5.3,0c-1.5,1.5-1.5,3.8,0,5.3C71,37,73.3,37,74.8,35.6z"
			/>
		<path class="st2" d="M52.5,28.5c2.1,0,3.8-1.7,3.8-3.8c0-2.1-1.7-3.8-3.8-3.8c-2.1,0-3.8,1.7-3.8,3.8
			C48.8,26.8,50.4,28.5,52.5,28.5z"/>
		<path class="st2" d="M61.8,30.2c1.9,0.8,4.1-0.1,5-2c0.8-1.9-0.1-4.2-2.1-5c-1.9-0.8-4.1,0.1-5,2.1C58.9,27.1,59.9,29.4,61.8,30.2
			z"/>
		<path class="st2" d="M79.8,59.7c-1.9-0.8-4.2,0.1-5,2.1c-0.8,1.9,0.1,4.2,2,5c1.9,0.8,4.2-0.1,5-2.1
			C82.7,62.8,81.8,60.5,79.8,59.7z"/>
		<path class="st2" d="M69.5,69.5c-1.5,1.5-1.5,3.8,0,5.3c1.5,1.5,3.8,1.5,5.3,0c1.5-1.5,1.5-3.9,0-5.3C73.3,68,71,68,69.5,69.5z"/>
		<path class="st2" d="M61.9,63.7v-5.1c0-2.5-2-4.5-4.5-4.5h-9.9c-2.5,0-4.5,2-4.5,4.5v5.1c0,2.5,0.5,3,3,3h12.9
			C61.4,66.7,61.9,66.2,61.9,63.7z"/>
		<path class="st2" d="M30.2,69.5c-1.5,1.5-1.5,3.8,0,5.3c1.5,1.5,3.8,1.5,5.3,0c1.5-1.5,1.5-3.9,0-5.3C34.1,68,31.7,68,30.2,69.5z"
			/>
		<path class="st2" d="M80.2,48.8c-2.1,0-3.8,1.7-3.8,3.8c0,2.1,1.7,3.8,3.8,3.8c2.1,0,3.8-1.7,3.8-3.8C84,50.5,82.3,48.8,80.2,48.8
			z"/>
		<path class="st2" d="M61.8,74.9c-1.9,0.8-2.9,3-2.1,5c0.8,1.9,3,2.8,4.9,2c1.9-0.8,2.9-3,2.1-4.9C65.9,75,63.7,74.1,61.8,74.9z"/>
		<path class="st2" d="M52.5,76.5c-2.1,0-3.8,1.7-3.8,3.8c0,2.1,1.7,3.8,3.8,3.8c2.1,0,3.8-1.7,3.8-3.8
			C56.3,78.2,54.6,76.5,52.5,76.5z"/>
		<path class="st2" d="M30.2,30.3c-1.5,1.5-1.5,3.8,0,5.3c1.5,1.5,3.8,1.5,5.3,0c1.5-1.5,1.5-3.8,0-5.3
			C34.1,28.8,31.7,28.8,30.2,30.3z"/>
		<path class="st2" d="M43.2,74.9c-1.9-0.8-4.2,0.1-5,2.1c-0.8,1.9,0.1,4.1,2.1,4.9c1.9,0.8,4.2-0.1,5-2
			C46.1,77.9,45.2,75.7,43.2,74.9z"/>
	</g>
</g>
</svg>
