<svg id="Vrstva_1" data-name="Vrstva 1" xmlns="http://www.w3.org/2000/svg" viewBox="0 0 102.4 88.3"><title>logo-zbozi-grey</title><ellipse cx="53.55" cy="44.12" rx="43.78" ry="44.1" style="fill:#eee"/><path d="M97.2,45.2h1.34A43.93,43.93,0,0,0,55.09,7.64C36.28,7.64,20.25,20.11,14,36.85l2.5.06a41.29,41.29,0,0,1,79.43,8.27C96.55,45.2,96.55,45.2,97.2,45.2Z" transform="translate(-1.7 -7.64)" style="fill:#abb4bb"/><path d="M95.72,66.84H93.78a41.38,41.38,0,0,1-77.47-.59h-2.5C20,83.18,36.13,95.94,55.09,95.94a44,44,0,0,0,41.3-29.1Z" transform="translate(-1.7 -7.64)" style="fill:#abb4bb"/><path d="M24.91,49.45C21.59,51.08,13,53.68,11.82,54.06c-.76.25-3.25,1.14-3.39,2-.17,1.29,2.76,1.6,4.46,1.8a39.44,39.44,0,0,0,6.48.31c2.47-.13,5.92-.64,6-.11s-4.23,2.14-6,2.54a48.36,48.36,0,0,1-9.15,1c-2.54-.07-6.68-.38-8.17-2.83a3.75,3.75,0,0,1,0-3.27,5.2,5.2,0,0,1,2.45-2.2C7,52.26,18.36,48.12,18.7,48.05c.75-.16,1.76-.65-.25-.8-1.58-.14-3.16-.2-4.74-.2-.76,0-1.51,0-2.27.06a2.27,2.27,0,0,1-1.78-.37,3.75,3.75,0,0,1-.85-1.81,1.27,1.27,0,0,1,.56-1.31c.93-.69,2.4-.6,3.52-.58.58,0,3.94.27,5,.36,2.89.22,7,.75,8.19,3.65.65,1.6-1.2,2.4-1.2,2.4Z" transform="translate(-1.7 -7.64)" style="fill:#abb4bb"/><path d="M35.24,61.83a15.81,15.81,0,0,1-5.5-.53c-1.09-.4-3.07-1.25-3.23-2s.65-1.12.83-3.72c.06-.94,0-1.71,0-2.65s0-4,0-4.48c0,0,0-4.36.44-4.85s2.09,1.54,2.5,2c.57.67-.41,7.2-.23,7.4s1.27-2.07,4.68-1.7a5.85,5.85,0,0,1,5.52,6.08,3.74,3.74,0,0,1-1,2.65c-.89,1-1.94,1.45-4,1.76Zm-5-6a3.62,3.62,0,0,0-.2,2.14,7.67,7.67,0,0,0,2.58.51,6.52,6.52,0,0,0,2.94-.38c.69-.29,1.07-.91.91-2.18a2.76,2.76,0,0,0-3.07-2,4,4,0,0,0-3.16,2Zm19.08-5.1a5.32,5.32,0,0,1,4.69,6.77,6.22,6.22,0,0,1-2.24,3.12,9,9,0,0,1-6.24,1.2,7.58,7.58,0,0,1-1.85-.67,4.59,4.59,0,0,1-2.36-2.29,4,4,0,0,1-.13-2A5.06,5.06,0,0,1,42,55.09a10.09,10.09,0,0,1,2.76-2.57c1.24-.82,3-1.84,4.61-1.78m-4,7.55a6.57,6.57,0,0,0,3,.25,3.44,3.44,0,0,0,2.72-1.83,2.17,2.17,0,0,0-.44-2.65,3,3,0,0,0-2.94-.36,6.8,6.8,0,0,0-2.5,1.3c-.49.46-1.13,1.22-1,2a1.78,1.78,0,0,0,1.2,1.33Zm12.16-8.53a22.34,22.34,0,0,1,2.94.2c1.11.16,2.76.29,3.14,1.45C64.34,53.5,62.2,55,61.29,56a17.18,17.18,0,0,0-1.74,2.07,4.77,4.77,0,0,0,1.9.13c5.14-.11,6.41-1.4,6.81-1.47.78-.13-.31,1.92-.45,2.14-1.47,2.45-2.89,2.45-5.52,2.76a14.73,14.73,0,0,1-2.58.14A6.39,6.39,0,0,1,56.32,61c-1.2-.87-.89-2.09-.24-3.16.45-.78,4.07-3.92,4-4.61a6.55,6.55,0,0,0-3.38.16c-.52.2-1.32.51-1.61-.16a2.46,2.46,0,0,1,.16-1.6,2.1,2.1,0,0,1,2.27-1.83" transform="translate(-1.7 -7.64)" style="fill:#abb4bb"/><path d="M97.51,59a20.61,20.61,0,0,1-3.69.18,4.27,4.27,0,0,1-1.47-.29c-1-.67,2.54-1.85,3-2,1.23-.44,3.72-1.15,3.72-1.15s2.34-.58,2.4-1.83c.09-1.51-1.49-2.2-2.67-2.6A10.53,10.53,0,0,0,97.29,51c-.33,0-.69,0-1-.07a13.75,13.75,0,0,0-1.92.12c-.67.08-2.07.11-2.27.95-.11.43-.58,1.29-.18,1.67s1.12.25,1.63.18c.71-.07,1.42-.2,2.14-.27.53,0,1.22-.17,1.64.23s-.89.93-1.15,1.06c-1.07.45-2.19.78-3.28,1.23s-2,.82-3,1.29c-.45.22-.87.49-1.29.74l-.2-.14-1.25.14-1.25.11c-.82.06-1.67.09-2.49.13a2.06,2.06,0,0,1-1.4-.29c-.72-.69-.32-1.62.15-2.27a6.55,6.55,0,0,1,2-1.69,6.21,6.21,0,0,1,1.63-.71,7.77,7.77,0,0,1,1.18-.27c.07.11.11.22.18.33a4.6,4.6,0,0,0,1-.38c.29-.15.69-.44.69-.8a1.35,1.35,0,0,0-.71-1.09,2.34,2.34,0,0,0-1.27-.33,9.91,9.91,0,0,0-1.45.09,5.29,5.29,0,0,0-1,.22,7.63,7.63,0,0,0-1.56.64A8.13,8.13,0,0,0,81,53.24a4.29,4.29,0,0,0-.65.87,5.42,5.42,0,0,0-.55,1.26,5.54,5.54,0,0,0,.29,3.88,4.39,4.39,0,0,0,4.92,2.49,6.3,6.3,0,0,0,1.26-.38,7.61,7.61,0,0,0,1.27-.55c.09-.05,1-.56,1-.49s.22.4.35.55a3,3,0,0,0,.49.45,2.33,2.33,0,0,0,1.23.42A31,31,0,0,0,94,62a19.9,19.9,0,0,0,2.67-.13c.58,0,1.16-.13,1.71-.2a14.76,14.76,0,0,0,4.23-1.18,4.64,4.64,0,0,0,1.49-1.13,1.77,1.77,0,0,0-.53-.27,7.37,7.37,0,0,0-3.67-.34c-.56.07-1.12.14-1.7.18l-.69.07ZM78.17,60.34a1.14,1.14,0,0,0-.07-.56,1.57,1.57,0,0,0-1-.91,1.6,1.6,0,0,0-1.18.24,1.62,1.62,0,0,0-.45.56,1.67,1.67,0,0,0,.11,1.52,1.45,1.45,0,0,0,2.09.13,1.51,1.51,0,0,0,.52-1Z" transform="translate(-1.7 -7.64)" style="fill:#abb4bb;fill-rule:evenodd"/><path d="M56.28,44.18A51,51,0,0,1,66,46.51a18,18,0,0,1,4.47,1.78c1.34,1,2.19,1.63,2.43,2.23a7.14,7.14,0,0,1,.22,3.81,47.19,47.19,0,0,1-1.24,6.41c-.47.89-1.43.33-1.89-.27-1.3-1.62-.63-3.83-.16-5.63C70.06,54,71,51.9,70.75,51s-.89-.83-2.18-1.25c-.67-.22-3.36-.85-6.75-1.47s-3.25-.53-4.54-.76c-1.13-.2-2.42-.29-3.2-.46-1.07-.23-1.5-.54-1.72-.92-.4-.69-.49-1.85-.11-2.13s4,.2,4,.2M72,47.2c0-.84,1.45-1.38,2.47-1.89A26.67,26.67,0,0,1,78,43.75a1.38,1.38,0,0,1,1.78,1,2.52,2.52,0,0,1,.09,1.56c-.22.74-1,.91-1.65,1.05-3.9.73-6.17.55-6.19-.14" transform="translate(-1.7 -7.64)" style="fill:#abb4bb"/></svg>